# xmcd
# 
# Track frame offsets:
#     150
#     20371
#     40174
#     61000
#     82383
#     97186
#     116418
#     136877
#     152864
#     174384
#     195914
#     225373
#     254626
#     295530
# 
# Disc length: 4478
# 
# Revision: 1
# Processed by: cddbd v1.5.2PL0 Copyright (c) Steve Scherf et al.
# Submitted via: fre:ac v1.0.31
# 
DISCID=b4117c0e
DTITLE=Various Artist - AUDIO 2016-10 - AUDIOphile Pearls Volume 18
DYEAR=2016
DGENRE=Audiophile
TTITLE0=Fabrizio Consoli - Il Maestro
TTITLE1=New Model Army - Winter
TTITLE2=The Stray Birds - Third Day In A Row
TTITLE3=Ryley Walker - The Roundabout
TTITLE4=Madeleine Peyroux - Everything I Do Gonna Be Funky
TTITLE5=Cass McCombs - Opposite House
TTITLE6=The Pineapple Thief - Take Your Shot
TTITLE7=The Divine Comedy - How Can You Leave Me On My Own
TTITLE8=byebye - Für den Moment
TTITLE9=Sivan Talmor - Fire
TTITLE10=Ludwig van Beethoven - Trio in B-Dur op.11 (Gassenhauertrio) III. Tema con variazioni
TTITLE11=Wolfgang Amadeus Mozart - Rondo D-Dur KV 485 [Evgeni Koroliov - Klavier]
TTITLE12=Pablo de Sarasate - Zigeunerweisen op. 20 Nr. 1 [Arabella Steinbacher - Violine and Orchestre Philharmonique de Monte Carlo - Lawrence Foster]
TTITLE13=Johann Sebastian Bach - Toccata und Fuge für Orgel D-Moll BWV 565 [Christoph Schoener]
EXTD=
EXTT0=
EXTT1=
EXTT2=
EXTT3=
EXTT4=
EXTT5=
EXTT6=
EXTT7=
EXTT8=
EXTT9=
EXTT10=
EXTT11=
EXTT12=
EXTT13=
PLAYORDER=
